<?xml version="1.0" encoding="UTF-8" standalone="no"?>

<!DOCTYPE svg PUBLIC "-//W3C//DTD SVG 1.1//EN" "http://www.w3.org/Graphics/SVG/1.1/DTD/svg11.dtd">

<!-- Uploaded to: SVG Repo, www.svgrepo.com, Transformed by: SVG Repo Mixer Tools -->
<svg fill="#000000" height="456" width="456" version="1.1" id="Layer_1" xmlns="http://www.w3.org/2000/svg" xmlns:xlink="http://www.w3.org/1999/xlink" viewBox="0 0 512 512" xml:space="preserve">

<g id="SVGRepo_bgCarrier" stroke-width="0"/>

    <g id="SVGRepo_tracerCarrier" stroke-linecap="round" stroke-linejoin="round"/>

    <g id="SVGRepo_iconCarrier"> <g> <g> <path  d="M256,76.385C156.96,76.385,76.385,156.96,76.385,256S156.96,435.615,256,435.615S435.615,355.04,435.615,256 S355.04,76.385,256,76.385z M256,415.217c-87.793,0-159.217-71.424-159.217-159.217S168.207,96.783,256,96.783 S415.217,168.207,415.217,256S343.793,415.217,256,415.217z"/> </g> </g> <g> <g> <path d="M387.733,36.464C348.059,12.609,302.506,0,256,0s-92.059,12.609-131.733,36.463c-4.827,2.904-6.388,9.17-3.485,13.997 c2.902,4.826,9.169,6.387,13.996,3.485C171.279,31.999,213.197,20.398,256,20.398c42.803,0,84.721,11.601,121.221,33.547 c1.645,0.99,3.458,1.461,5.247,1.461c3.462,0,6.836-1.762,8.751-4.945C394.121,45.633,392.56,39.367,387.733,36.464z"/> </g> </g> <g> <g> <path d="M20.398,256c0-42.803,11.601-84.721,33.548-121.222c2.903-4.827,1.342-11.094-3.485-13.996 c-4.828-2.902-11.094-1.341-13.997,3.485C12.609,163.941,0,209.494,0,256c0,46.506,12.609,92.059,36.464,131.733 c1.914,3.182,5.289,4.945,8.751,4.945c1.788,0,3.601-0.471,5.245-1.46c4.827-2.903,6.388-9.169,3.485-13.996 C31.999,340.721,20.398,298.803,20.398,256z"/> </g> </g> <g> <g> <path d="M475.537,124.267c-2.904-4.827-9.17-6.389-13.997-3.485c-4.827,2.903-6.388,9.169-3.485,13.996 c21.947,36.501,33.547,78.419,33.547,121.222c0,42.803-11.601,84.721-33.548,121.221c-2.903,4.827-1.342,11.094,3.485,13.996 c1.645,0.99,3.458,1.461,5.246,1.461c3.462,0,6.838-1.762,8.751-4.945C499.391,348.059,512,302.506,512,256 S499.391,163.941,475.537,124.267z"/> </g> </g> <g> <g> <path d="M391.218,461.539c-2.903-4.827-9.17-6.39-13.996-3.485c-36.501,21.947-78.419,33.547-121.222,33.547 s-84.721-11.601-121.222-33.548c-4.826-2.903-11.094-1.342-13.996,3.485c-2.903,4.828-1.342,11.095,3.485,13.997 C163.941,499.391,209.494,512,256,512c46.506,0,92.059-12.609,131.733-36.463C392.56,472.633,394.121,466.367,391.218,461.539z"/> </g> </g> <g> <g> <path d="M466.378,203.415c-9.473-38.049-29.203-72.882-57.056-100.736c-27.854-27.853-62.687-47.582-100.737-57.056 c-5.463-1.361-11.001,1.967-12.361,7.433s1.967,11.001,7.433,12.361c34.455,8.58,66.005,26.453,91.24,51.688 c25.235,25.234,43.108,56.784,51.688,91.24c1.156,4.639,5.316,7.737,9.889,7.737c0.815,0,1.645-0.099,2.471-0.305 C464.411,214.415,467.739,208.881,466.378,203.415z"/> </g> </g> <g> <g> <path d="M215.775,53.055c-1.361-5.467-6.898-8.795-12.361-7.433c-38.049,9.473-72.883,29.203-100.737,57.056 c-27.853,27.854-47.582,62.687-57.056,100.737c-1.361,5.466,1.967,11.001,7.433,12.361c0.827,0.206,1.656,0.305,2.472,0.305 c4.574,0,8.735-3.099,9.888-7.737c8.58-34.455,26.453-66.005,51.688-91.24c25.234-25.235,56.784-43.108,91.24-51.688 C213.809,64.055,217.136,58.521,215.775,53.055z"/> </g> </g> <g> <g> <path d="M458.948,296.223c-5.463-1.364-11.001,1.965-12.362,7.431c-0.453,1.816-0.934,3.64-1.432,5.419 c-1.517,5.425,1.652,11.052,7.077,12.568c0.918,0.257,1.842,0.379,2.751,0.379c4.46,0,8.557-2.95,9.819-7.457 c0.549-1.963,1.08-3.976,1.579-5.979C467.741,303.119,464.414,297.584,458.948,296.223z"/> </g> </g> <g> <g> <path d="M441.87,346.96c-4.93-2.725-11.135-0.935-13.86,3.995c-8.871,16.057-20.012,30.84-33.114,43.942 c-25.234,25.235-56.784,43.108-91.24,51.688c-5.467,1.362-8.794,6.896-7.433,12.361c1.156,4.639,5.316,7.737,9.889,7.737 c0.816,0,1.645-0.099,2.472-0.304c38.049-9.474,72.883-29.203,100.737-57.057c14.453-14.454,26.748-30.772,36.544-48.502 C448.59,355.889,446.801,349.684,441.87,346.96z"/> </g> </g> <g> <g> <path d="M208.344,446.584c-34.455-8.58-66.005-26.453-91.24-51.688c-25.235-25.234-43.108-56.784-51.688-91.24 c-1.362-5.467-6.899-8.794-12.361-7.433c-5.467,1.362-8.794,6.896-7.433,12.361c9.473,38.049,29.203,72.883,57.056,100.737 c27.854,27.853,62.687,47.582,100.737,57.056c0.827,0.206,1.656,0.305,2.472,0.305c4.574,0,8.735-3.099,9.89-7.737 C217.138,453.48,213.81,447.945,208.344,446.584z"/> </g> </g> </g>

</svg>